<svg width="1200" height="700" viewBox="0 0 1200 700" fill="none" xmlns="http://www.w3.org/2000/svg">
  <rect width="1200" height="700" rx="30" fill="url(#paint0_linear)"/>
  <circle cx="230" cy="140" r="110" fill="#60A5FA" fill-opacity="0.35"/>
  <circle cx="1020" cy="520" r="170" fill="#A78BFA" fill-opacity="0.28"/>
  <rect x="130" y="170" width="420" height="370" rx="28" fill="#0F172A" fill-opacity="0.6" stroke="#BFDBFE" stroke-opacity="0.55"/>
  <rect x="185" y="238" width="310" height="18" rx="9" fill="#CBD5E1" fill-opacity="0.9"/>
  <rect x="185" y="281" width="220" height="14" rx="7" fill="#E2E8F0" fill-opacity="0.75"/>
  <rect x="185" y="416" width="160" height="44" rx="22" fill="#2563EB"/>
  <rect x="580" y="120" width="470" height="460" rx="36" fill="#F8FAFC" fill-opacity="0.9"/>
  <rect x="626" y="188" width="150" height="150" rx="26" fill="#DBEAFE"/>
  <rect x="800" y="188" width="204" height="30" rx="15" fill="#1E293B"/>
  <rect x="800" y="234" width="150" height="16" rx="8" fill="#64748B"/>
  <rect x="626" y="372" width="378" height="30" rx="15" fill="#E2E8F0"/>
  <rect x="626" y="420" width="280" height="20" rx="10" fill="#CBD5E1"/>
  <rect x="626" y="468" width="210" height="52" rx="26" fill="#111827"/>
  <defs>
    <linearGradient id="paint0_linear" x1="120" y1="50" x2="1080" y2="680" gradientUnits="userSpaceOnUse">
      <stop stop-color="#0F172A"/>
      <stop offset="1" stop-color="#1D4ED8"/>
    </linearGradient>
  </defs>
</svg>
